# xmcd
#
# Track frame offsets:
# 150
# 14377
# 28035
# 43210
# 61080
# 78617
# 93115
# 108470
# 122670
# 137552
# 156417
# 172630
# 186540
#
# Disc length: 2673 seconds
#
# Revision: 1
# Processed by: cddbd v1.5PL3 Copyright (c) Steve Scherf et al.
# Submitted via: inCDius 2.0b9
#
DISCID=a60a6f0d
DTITLE=Brooklyn Cowboys - Doin' Time On Planet Earth
DYEAR=1900
DGENRE=
TTITLE0=You And I And The July Moon
TTITLE1=Jukebox Girl
TTITLE2=Boundless Love
TTITLE3=Californ'
TTITLE4=Reachin' For The Sky
TTITLE5=Wishful Drinking
TTITLE6=Hearts On Fire
TTITLE7=Carolina Calypso
TTITLE8=Learn How To Love Me
TTITLE9=Exquisite Torture
TTITLE10=Burning Bridge
TTITLE11=Headin' For Home
TTITLE12=What The ...??!!!
EXTD=
EXTT0=
EXTT1=
EXTT2=
EXTT3=
EXTT4=
EXTT5=
EXTT6=
EXTT7=
EXTT8=
EXTT9=
EXTT10=
EXTT11=
EXTT12=
PLAYORDER=
